HIERARCHY
ROOT hip
{
  OFFSET 0 0 0
  CHANNELS 6 Xposition Yposition Zposition Zrotation Yrotation Xrotation
  JOINT abdomen
  {
    OFFSET 0 20.6881 -0.73152
    CHANNELS 3 Zrotation Xrotation Yrotation
    JOINT chest
    {
      OFFSET 0 11.7043 -0.48768
      CHANNELS 3 Zrotation Xrotation Yrotation
      JOINT neck
      {
        OFFSET 0 22.1894 -2.19456
        CHANNELS 3 Zrotation Xrotation Yrotation
        JOINT head
        {
          OFFSET -0.24384 7.07133 1.2192
          CHANNELS 3 Zrotation Xrotation Yrotation
          JOINT leftEye
          {
            OFFSET 4.14528 8.04674 8.04672
            CHANNELS 3 Zrotation Xrotation Yrotation
            End Site
            {
              OFFSET 1 0 0
            }
          }
          JOINT rightEye
          {
            OFFSET -3.6576 8.04674 8.04672
            CHANNELS 3 Zrotation Xrotation Yrotation
            End Site
            {
              OFFSET 1 0 0
            }
          }
        }
      }
      JOINT rCollar
      {
        OFFSET -2.68224 19.2634 -4.8768
        CHANNELS 3 Zrotation Xrotation Yrotation
        JOINT rShldr
        {
          OFFSET -8.77824 -1.95073 1.46304
          CHANNELS 3 Zrotation Xrotation Yrotation
          JOINT rForeArm
          {
            OFFSET -28.1742 -1.7115 0.48768
            CHANNELS 3 Zrotation Xrotation Yrotation
            JOINT rHand
            {
              OFFSET -22.5879 0.773209 7.07136
              CHANNELS 3 Zrotation Xrotation Yrotation
              JOINT rThumb1
              {
                OFFSET -1.2192 -0.487915 3.41376
                CHANNELS 3 Zrotation Xrotation Yrotation
                JOINT rThumb2
                {
                  OFFSET -3.37035 -0.52449 3.41376
                  CHANNELS 3 Zrotation Xrotation Yrotation
                  End Site
                  {
                    OFFSET -1.78271 -1.18214 1.43049
                  }
                }
              }
              JOINT rIndex1
              {
                OFFSET -7.75947 0.938293 5.60832
                CHANNELS 3 Zrotation Xrotation Yrotation
                JOINT rIndex2
                {
                  OFFSET -2.54057 -0.884171 1.56538
                  CHANNELS 3 Zrotation Xrotation Yrotation
                  End Site
                  {
                    OFFSET -1.62519 -0.234802 1.16502
                  }
                }
              }
              JOINT rMid1
              {
                OFFSET -8.24714 1.18213 3.41376
                CHANNELS 3 Zrotation Xrotation Yrotation
                JOINT rMid2
                {
                  OFFSET -3.10165 -0.590103 1.0647
                  CHANNELS 3 Zrotation Xrotation Yrotation
                  End Site
                  {
                    OFFSET -2.48547 -0.328903 0.83742
                  }
                }
              }
              JOINT rRing1
              {
                OFFSET -8.82822 0.546677 1.51678
                CHANNELS 3 Zrotation Xrotation Yrotation
                JOINT rRing2
                {
                  OFFSET -2.60934 -0.819778 -0.0198488
                  CHANNELS 3 Zrotation Xrotation Yrotation
                  End Site
                  {
                    OFFSET -2.33842 -0.294052 0.168128
                  }
                }
              }
              JOINT rPinky1
              {
                OFFSET -8.27202 -0.0477905 -0.4584
                CHANNELS 3 Zrotation Xrotation Yrotation
                JOINT rPinky2
                {
                  OFFSET -1.82734 -0.647385 -0.700984
                  CHANNELS 3 Zrotation Xrotation Yrotation
                  End Site
                  {
                    OFFSET -1.69225 -0.51767 -0.607171
                  }
                }
              }
            }
          }
        }
      }
      JOINT lCollar
      {
        OFFSET 2.68224 19.2634 -4.8768
        CHANNELS 3 Zrotation Xrotation Yrotation
        JOINT lShldr
        {
          OFFSET 8.77824 -1.95073 1.46304
          CHANNELS 3 Zrotation Xrotation Yrotation
          JOINT lForeArm
          {
            OFFSET 28.1742 -1.7115 0.48768
            CHANNELS 3 Zrotation Xrotation Yrotation
            JOINT lHand
            {
              OFFSET 22.5879 0.773209 7.07136
              CHANNELS 3 Zrotation Xrotation Yrotation
              JOINT lThumb1
              {
                OFFSET 1.2192 -0.487915 3.41376
                CHANNELS 3 Zrotation Xrotation Yrotation
                JOINT lThumb2
                {
                  OFFSET 3.37035 -0.52449 3.41376
                  CHANNELS 3 Zrotation Xrotation Yrotation
                  End Site
                  {
                    OFFSET 1.78271 -1.18214 1.43049
                  }
                }
              }
              JOINT lIndex1
              {
                OFFSET 7.75947 0.938293 5.60832
                CHANNELS 3 Zrotation Xrotation Yrotation
                JOINT lIndex2
                {
                  OFFSET 2.54057 -0.884171 1.56538
                  CHANNELS 3 Zrotation Xrotation Yrotation
                  End Site
                  {
                    OFFSET 1.62519 -0.234802 1.16502
                  }
                }
              }
              JOINT lMid1
              {
                OFFSET 8.24714 1.18213 3.41376
                CHANNELS 3 Zrotation Xrotation Yrotation
                JOINT lMid2
                {
                  OFFSET 3.10165 -0.590103 1.0647
                  CHANNELS 3 Zrotation Xrotation Yrotation
                  End Site
                  {
                    OFFSET 2.48547 -0.328903 0.83742
                  }
                }
              }
              JOINT lRing1
              {
                OFFSET 8.82822 0.546677 1.51678
                CHANNELS 3 Zrotation Xrotation Yrotation
                JOINT lRing2
                {
                  OFFSET 2.60934 -0.819778 -0.0198488
                  CHANNELS 3 Zrotation Xrotation Yrotation
                  End Site
                  {
                    OFFSET 2.33842 -0.294052 0.168128
                  }
                }
              }
              JOINT lPinky1
              {
                OFFSET 8.27202 -0.0477905 -0.4584
                CHANNELS 3 Zrotation Xrotation Yrotation
                JOINT lPinky2
                {
                  OFFSET 1.82734 -0.647385 -0.700984
                  CHANNELS 3 Zrotation Xrotation Yrotation
                  End Site
                  {
                    OFFSET 1.69225 -0.51767 -0.607171
                  }
                }
              }
            }
          }
        }
      }
    }
  }
  JOINT rButtock
  {
    OFFSET -8.77824 4.35084 1.2192
    CHANNELS 3 Zrotation Xrotation Yrotation
    JOINT rThigh
    {
      OFFSET 0 -1.70687 -2.19456
      CHANNELS 3 Zrotation Xrotation Yrotation
      JOINT rShin
      {
        OFFSET 0 -36.8199 0.73152
        CHANNELS 3 Zrotation Xrotation Yrotation
        JOINT rFoot
        {
          OFFSET 0.73152 -45.1104 -5.12064
          CHANNELS 3 Zrotation Xrotation Yrotation
          End Site
          {
            OFFSET -1.1221 -3.69964 12.103
          }
        }
      }
    }
  }
  JOINT lButtock
  {
    OFFSET 8.77824 4.35084 1.2192
    CHANNELS 3 Zrotation Xrotation Yrotation
    JOINT lThigh
    {
      OFFSET 0 -1.70687 -2.19456
      CHANNELS 3 Zrotation Xrotation Yrotation
      JOINT lShin
      {
        OFFSET 0 -36.8199 0.73152
        CHANNELS 3 Zrotation Xrotation Yrotation
        JOINT lFoot
        {
          OFFSET -0.73152 -45.1104 -5.12064
          CHANNELS 3 Zrotation Xrotation Yrotation
          End Site
          {
            OFFSET 1.1221 -3.69964 12.103
          }
        }
      }
    }
  }
}
MOTION
Frames: 4
Frame Time: 0.00833333
-0.919424 82.8521 3.71507 -117.84799999999998 87.32509999999999 -106.481 0.268154 -3.7971199999999996 8.628369999999999 -2.06129 0.244864 2.36001 5.174199999999999 10.8082 1.9217899999999999 32.4971 39.351 3.38987 -0.0 0.0 0.0 -0.0 0.0 0.0 6.54694e-14 3.78378e-13 1.5011699999999997e-14 54.9657 49.71289999999999 27.32 18.273799999999998 -54.5684 -118.257 -0.000689892 0.749994 0.105411 6.97395e-10 4.1257e-10 5.338149999999999e-10 1.19873e-09 7.11503e-10 9.23677e-10 6.974e-10 4.1256899999999994e-10 5.3381e-10 7.73091 5.474879999999999 0.41731399999999996 6.97393e-10 4.1257e-10 5.33806e-10 2.90554 0.965183 0.102902 6.97395e-10 4.1257e-10 5.33812e-10 10.2786 0.731801 0.0259123 6.97393e-10 4.1257199999999997e-10 5.33823e-10 2.22167 -0.7334869999999999 -0.20892 6.54222e-14 3.783719999999999e-13 1.48184e-14 -39.67699999999999 18.7717 -62.2428 17.7834 -54.8788 -119.358 4.92867 -51.5277 10.1886 -7.20949e-10 7.34035e-10 -1.6774699999999998e-09 -1.17082e-09 1.2503999999999997e-09 -2.92666e-09 -7.20955e-10 7.34034e-10 -1.6774599999999997e-09 -7.73091 5.474879999999999 -0.41731399999999996 -7.20948e-10 7.34036e-10 -1.6774699999999998e-09 -2.90554 0.965183 -0.102902 -7.20951e-10 7.340369999999999e-10 -1.6774699999999998e-09 -10.2786 0.731801 -0.0259123 -7.20949e-10 7.340369999999999e-10 -1.6774699999999998e-09 -2.22167 -0.7334869999999999 0.20892 -2.0321699999999997e-16 0.0 -3.88251e-19 -4.25736 -10.744399999999999 14.6749 0.0021102 2.10039 0.136683 -2.22469 0.5327189999999999 -21.4707 2.0321699999999997e-16 0.0 3.88251e-19 19.4227 -8.02313 0.190358 -0.0187702 9.264669999999999 -0.266932 -0.07945239999999999 -1.24491 0.0283789 
-0.8907948731203008 82.85071494360902 3.73933780075188 -121.44887124060149 87.18360028195488 -110.20476409774436 -0.3740428063909774 -4.023910620300752 6.729207828947368 -1.2852839379699248 0.7704263421052632 1.8243557236842105 1.4205809680451127 12.941872086466166 -2.0856495112781954 33.02566203007519 42.493682894736835 -5.247221015037593 -0.0 0.0 0.0 -0.0 0.0 0.0 2.9023441710526315e-14 5.861843294172932e-13 4.2088835338345865e-14 51.78161484962406 50.50571456766917 30.96130338345865 18.466457612781955 -54.44230488721804 -117.81951691729323 -0.0007444106597744361 0.7858157133458646 0.11044566447368422 -3.007685056390977e-11 6.536366691729324e-10 -1.4855866541353388e-12 -4.8306652537593985e-11 1.133227922932331e-09 -1.8012791353383429e-12 -3.006651109022556e-11 6.536324699248121e-10 -1.4930441729323294e-12 7.73091 5.47488 0.417314 -3.007713562030075e-11 6.536317189849624e-10 -1.484641071428566e-12 2.90554 0.965183 0.102902 -3.007256090225564e-11 6.536326691729323e-10 -1.4834464285714275e-12 10.2786 0.731801 0.0259123 -3.008185056390978e-11 6.536366691729324e-10 -1.4763966165413522e-12 2.22167 -0.733487 -0.20892 2.891907578947368e-14 5.861743842105263e-13 4.1838233082706775e-14 -34.65783129699248 16.527895958646617 -64.07836635338346 18.807466165413533 -54.21318947368421 -117.03653195488722 5.822938740601503 -54.380138439849624 11.31067885338346 7.319425357142856e-10 -4.000943167293233e-10 5.175257753759399e-10 1.2350905394736843e-09 -6.849235770676692e-10 9.272413665413534e-10 7.319354360902256e-10 -4.000903665413534e-10 5.175279746240601e-10 -7.73091 5.47488 -0.417314 7.319435357142856e-10 -4.000923167293233e-10 5.175297753759399e-10 -2.90554 0.965183 -0.102902 7.319305357142857e-10 -4.000913167293233e-10 5.175297753759399e-10 -10.2786 0.731801 -0.0259123 7.319484360902256e-10 -4.000953665413534e-10 5.175246259398497e-10 -2.22167 -0.733487 0.20892 -2.03217e-16 0.0 -3.88251e-19 -4.184720112781955 -10.551575093984964 14.477725563909775 -0.0023256733082706762 2.072290009398496 0.13653642763157897 -2.2883624248120302 0.37184090789473684 -21.460729511278196 2.03217e-16 0.0 3.88251e-19 19.419290413533837 -8.029961503759399 0.1906440084586466 -0.018499894266917293 9.268741663533834 -0.26471562500000007 -0.07736176738721805 -1.2418611560150374 0.028116610432330824 
-0.8303422646616542 82.85607022556391 3.8348453383458647 -124.02265112781956 86.86929142857144 -112.8582045112782 -1.0850156992481204 -4.258037383458648 4.754218541353383 -0.7033955744360902 0.8207974225563911 1.2630751578947368 -0.598710252631579 11.603546165413535 -5.733366977443609 30.454588421052634 44.208803308270674 -13.173754436090226 -0.0 0.0 0.0 -0.0 0.0 0.0 -1.976769097744361e-14 -7.033592736842104e-14 -5.510116721804511e-15 49.14075864661654 51.53224902255639 34.05187473684211 18.543986616541353 -54.39104390977444 -117.6424962406015 -0.00051343592481203 0.6569656706766918 0.09233434556390978 -6.440687428571428e-10 1.5267391127819551e-10 -2.4190323759398494e-10 -1.108622060150376e-09 2.6798616842105265e-10 -4.1731565413533843e-10 -6.440576932330828e-10 1.5267301052631579e-10 -2.4191608872180457e-10 7.73091 5.47488 0.417314 -6.440677428571429e-10 1.5266986165413533e-10 -2.4190323759398494e-10 2.90554 0.9651830000000001 0.102902 -6.440647428571429e-10 1.5266786165413533e-10 -2.419012872180451e-10 10.2786 0.7318010000000001 0.025912300000000003 -6.44077792481203e-10 1.526689112781955e-10 -2.4189138646616543e-10 2.2216700000000005 -0.733487 -0.20892 -1.9867535789473683e-14 -7.033583233082706e-14 -5.680860631578947e-15 -30.785465413533835 13.98137142857143 -65.46553654135337 19.327847518796993 -53.84891398496241 -115.82212932330826 4.426957804511279 -49.70343022556391 9.540441563909775 9.027400887218046e-10 -1.0841066466165414e-09 1.3327462105263158e-09 1.5043186917293232e-09 -1.863014977443609e-09 2.3387545864661653e-09 9.027311383458647e-10 -1.084106497744361e-09 1.332756210526316e-09 -7.73091 5.47488 -0.417314 9.027420390977444e-10 -1.084106497744361e-09 1.3327467067669174e-09 -2.90554 0.9651830000000001 -0.102902 9.027350390977444e-10 -1.084106497744361e-09 1.3327462105263158e-09 -10.2786 0.7318010000000001 -0.025912300000000003 9.027469894736843e-10 -1.0841063984962406e-09 1.332736210526316e-09 -2.2216700000000005 -0.733487 0.20892 -2.03217e-16 0.0 -3.8825100000000003e-19 -4.041229353383459 -10.23125894736842 14.237480451127821 -0.0007323054345864662 1.6163468270676693 0.1126853172932331 -1.969355969924812 1.1675990827067668 -21.3530407518797 2.03217e-16 0.0 3.8825100000000003e-19 19.417614887218047 -8.018407699248119 0.19042872481203008 -0.0180937022556391 9.244050360902257 -0.26070046165413535 -0.07003473939849625 -1.2284286917293235 0.02715303082706767 
-0.6670967357142856 82.83926539473684 3.822099964285714 -124.51847612781954 87.00499714285714 -113.39862443609023 -1.817758020676692 -5.101458140977444 3.954373379699248 -0.36094612650375935 0.6383347885338345 1.0420256240601504 -2.4956436353383458 12.35670394736842 -8.829306928571429 26.960757481203004 41.585890601503756 -18.48887894736842 -0.0 0.0 0.0 -0.0 0.0 0.0 -4.014912710526316e-14 3.734421864661654e-14 -4.073744577067669e-15 48.6429025 52.01268210526316 34.944790808270675 18.389609022556392 -54.49272402255639 -117.99382913533834 -0.0012870955413533834 1.0213832575187969 0.14356187894736844 -1.3777475281954886e-09 -5.3661325e-10 -1.5729623533834587e-09 -2.3641736390977443e-09 -9.269715593984963e-10 -2.722893827067669e-09 -1.3777375281954885e-09 -5.366103983082707e-10 -1.5729718590225565e-09 7.73091 5.47488 0.417314 -1.3777475281954886e-09 -5.366132994360902e-10 -1.5729623533834587e-09 2.90554 0.965183 0.10290199999999998 -1.3777375281954885e-09 -5.366122994360903e-10 -1.5729618590225564e-09 10.2786 0.7318009999999999 0.0259123 -1.3777475281954886e-09 -5.366102499999999e-10 -1.5729518590225563e-09 2.22167 -0.733487 -0.20892 -4.029398469924812e-14 3.7348264266917294e-14 -4.285962629699247e-15 -29.818309548872183 10.708474812030074 -66.29663018796992 19.424986033834585 -53.77862654135338 -115.59217086466165 3.5750597838345866 -46.07975676691729 8.392332484962406 2.5313016033834585e-09 -3.773885693609023e-09 4.939967913533834e-09 4.183024625939849e-09 -6.465176140977443e-09 8.630955763157894e-09 2.5312916033834586e-09 -3.773885693609023e-09 4.939977913533835e-09 -7.73091 5.47488 -0.417314 2.5313016033834585e-09 -3.773885693609023e-09 4.9399774191729325e-09 -2.90554 0.965183 -0.10290199999999998 2.5313011090225566e-09 -3.773885693609023e-09 4.9399774191729325e-09 -10.2786 0.7318009999999999 -0.0259123 2.5313016033834585e-09 -3.773885693609023e-09 4.939967913533834e-09 -2.22167 -0.733487 0.20892 -2.03217e-16 0.0 -3.88251e-19 -4.065566505639097 -10.31994319548872 14.277399304511277 0.0036494507932330828 2.166908657894737 0.14100155150375943 -2.325098516917293 0.2740185101503759 -21.42115281954887 2.03217e-16 0.0 3.88251e-19 19.410185169172934 -8.0448082481203 0.19153619774436093 -0.017483816936090225 9.286473530075188 -0.25644266109022557 -0.07574202056390977 -1.2428724285714285 0.02796593486842105 
